COVER :: 
http://i.minus.com/iQqsERKgZ3GM7.png


SCREEN :: 
http://i.minus.com/ibmFZEKcoffMuV.png
 
http://i.minus.com/ibsINbar8MXE69.png
 
http://i.minus.com/ibsml1Zj6cZSlY.png
 
http://i.minus.com/ibzCojiGYL1F2C.png
 
http://i.minus.com/io23cHGi5zi8r.png
 
http://i.minus.com/ibzmXnlFRmzfjC.png
 
http://i.minus.com/iYpJZAzOTrmgL.png


General ::
Format                           : AVI
Format/Info                      : Audio Video Interleave
File size                        : 74.3 MiB
Duration                         : 1mn 49s
Overall bit rate                 : 5 681 Kbps


Video Info ::
ID                               : 0
Format                           : AVC
Format/Info                      : Advanced Video Codec
Format profile                   : High@L5.1
Format settings, CABAC           : Yes
Format settings, ReFrames        : 2 frames
Codec ID                         : H264
Duration                         : 10s 0ms
Bit rate                         : 5 480 Kbps
Width                            : 1 280 pixels
Height                           : 544 pixels
Display aspect ratio             : 2.35:1
Frame rate                       : 30.000 fps
Color space                      : YUV
Chroma subsampling               : 4:2:0
Bit depth                        : 8 bits
Scan type                        : Progressive
Bits/(Pixel*Frame)               : 0.262
Stream size                      : 71.6 MiB (96%)


Audio Info ::
ID                               : 1
Format                           : MPEG Audio
Format version                   : Version 1
Format profile                   : Layer 3
Codec ID                         : 55
Codec ID/Hint                    : MP3
Duration                         : 1mn 49s
Bit rate mode                    : Constant
Bit rate                         : 192 Kbps
Channel(s)                       : 2 channels
Sampling rate                    : 44.1 KHz
Compression mode                 : Lossy
Stream size                      : 2.51 MiB (3%)